<?xml version="1.0" standalone="no"?>
<!DOCTYPE svg PUBLIC "-//W3C//DTD SVG 20010904//EN"
 "http://www.w3.org/TR/2001/REC-SVG-20010904/DTD/svg10.dtd">
<svg version="1.0" xmlns="http://www.w3.org/2000/svg"
 width="495.000000pt" height="504.000000pt" viewBox="0 0 495.000000 504.000000"
 preserveAspectRatio="xMidYMid meet">

<g transform="translate(0.000000,504.000000) scale(0.100000,-0.100000)"
fill="#000000" stroke="none">
<path d="M2285 4938 c-104 -55 -248 -130 -319 -165 -70 -35 -181 -92 -245
-127 -186 -101 -490 -261 -711 -374 -113 -57 -234 -121 -270 -142 -36 -21
-107 -58 -157 -84 l-93 -46 0 -196 0 -195 -23 6 c-12 4 -67 29 -123 55 -86 42
-111 59 -166 119 -100 108 -113 197 -48 319 36 68 149 189 205 220 300 164
515 222 893 241 l147 8 -170 1 c-463 5 -819 -102 -1040 -310 -120 -113 -177
-240 -161 -355 12 -91 84 -198 188 -281 117 -92 245 -145 500 -206 194 -47
295 -63 468 -76 160 -11 675 -16 730 -6 19 3 96 10 171 16 357 25 928 137
1462 288 92 26 167 49 167 52 0 3 -9 16 -19 29 l-18 23 -84 -25 c-151 -46
-524 -136 -751 -182 -516 -103 -933 -147 -1373 -143 l-210 1 240 8 c438 13
811 61 1295 165 244 53 591 141 750 191 108 34 115 35 125 18 25 -45 88 -103
137 -127 247 -121 633 12 754 259 32 64 42 152 25 205 -16 47 -86 116 -147
144 -99 46 -268 50 -388 9 l-49 -17 -91 43 c-50 23 -154 76 -231 117 -263 140
-670 354 -850 447 -99 51 -214 111 -255 133 l-75 41 -190 -101z m211 -47 c5
-5 124 -68 264 -139 140 -71 278 -143 305 -159 28 -16 153 -83 279 -149 l230
-119 -89 -6 c-49 -3 -100 -3 -114 1 l-26 7 33 17 c18 9 30 21 27 26 -10 16
-181 11 -248 -6 -55 -15 -67 -15 -111 -2 -59 17 -68 32 -29 46 24 8 25 11 10
17 -20 9 -116 -2 -137 -15 -12 -7 -11 -12 4 -29 19 -21 19 -21 -5 -21 -33 0
-53 -15 -46 -33 9 -23 69 -37 187 -43 108 -6 160 -18 160 -38 0 -13 -88 -36
-138 -36 -33 0 -40 -8 -21 -27 14 -14 -40 -33 -95 -33 -56 0 -86 -10 -86 -26
0 -11 20 -14 93 -14 50 0 133 -7 182 -15 50 -8 116 -15 147 -15 31 0 68 -4 82
-10 50 -19 20 -60 -43 -60 -17 0 -31 -4 -31 -9 0 -10 61 -41 80 -41 9 0 10 -3
1 -14 -20 -24 -72 -28 -123 -9 -45 16 -50 16 -83 0 -20 -9 -47 -17 -60 -17
-31 0 -33 -18 -2 -24 12 -3 65 -15 117 -28 94 -22 94 -22 55 -30 -22 -5 -112
-28 -200 -52 -245 -68 -501 -126 -595 -137 -47 -5 -118 -18 -159 -29 -76 -19
-98 -18 -118 10 -8 11 -35 20 -80 25 -100 11 -121 10 -143 -10 -26 -23 -25
-50 1 -69 21 -14 21 -15 -12 -20 -129 -20 -452 -46 -576 -46 -82 0 -101 3 -97
14 3 8 -6 17 -23 23 -15 6 -44 16 -63 23 -19 7 -94 16 -165 20 -131 6 -144 9
-178 39 -11 9 -47 21 -80 26 -34 6 -61 15 -59 20 2 9 108 9 143 -1 8 -2 24 2
34 10 18 13 17 14 -11 30 l-29 17 55 -6 c102 -12 279 -9 300 5 28 19 -17 40
-86 40 -55 0 -64 3 -78 25 -15 23 -22 25 -94 25 -42 0 -94 -4 -115 -9 -25 -6
-50 -6 -68 1 -32 11 -34 31 -3 36 51 8 62 13 68 35 4 16 17 28 38 34 l33 11
-36 1 c-21 1 -42 8 -50 18 -8 9 -27 24 -42 33 l-29 18 209 109 c114 61 247
131 295 157 l86 46 181 1 c175 0 201 -3 201 -20 0 -13 -111 -41 -161 -41 -43
0 -89 -21 -89 -41 0 -12 427 0 453 13 20 10 23 34 5 41 -40 14 25 22 185 23
136 1 196 5 237 18 30 8 81 16 113 16 31 0 57 4 57 9 0 13 -91 20 -345 26
-218 5 -266 13 -209 36 35 13 273 39 370 39 76 0 112 15 101 44 -9 23 -55 39
-95 32 -18 -2 -54 2 -80 9 -26 8 -69 15 -97 15 -105 1 -87 35 25 47 48 5 60 9
60 23 0 20 -37 30 -113 30 -48 0 -117 18 -117 30 0 8 441 238 461 239 3 1 9
-3 15 -8z m-688 -407 c37 -10 19 -28 -34 -35 -27 -4 -73 -16 -102 -28 -29 -11
-78 -23 -110 -27 l-57 -5 90 49 c91 51 148 63 213 46z m1954 -370 c-79 -79
-92 -83 -137 -50 -19 14 -19 15 -1 35 10 11 16 27 13 35 -10 25 15 34 90 33
45 -1 78 4 85 11 7 7 15 12 19 12 4 0 -27 -34 -69 -76z m728 -149 c-15 -75
-36 -110 -106 -174 -95 -87 -234 -141 -363 -141 -114 0 -236 56 -274 125 -7
14 1 10 25 -11 117 -103 347 -100 522 6 123 75 186 159 187 252 0 46 2 50 10
28 7 -17 7 -44 -1 -85z m-83 50 c-9 -64 -39 -117 -94 -163 -90 -77 -217 -120
-317 -108 -66 9 -144 48 -176 88 l-25 32 45 -30 c60 -41 101 -54 169 -54 123
0 269 63 331 141 22 28 42 67 46 87 7 40 12 52 21 52 3 0 3 -20 0 -45z m-820
-32 c86 -6 90 -24 10 -48 -40 -12 -52 -12 -59 -3 -4 7 -8 15 -8 18 0 3 -13 11
-30 17 -35 13 -42 39 -7 28 12 -4 54 -9 94 -12z m43 -112 c0 -28 -4 -31 -92
-60 -439 -143 -1142 -283 -1638 -325 -319 -27 -755 -26 -935 3 l-60 10 60 -4
c292 -22 638 -15 970 21 380 41 924 153 1355 280 69 20 143 40 165 45 22 4 69
19 105 33 36 13 66 25 68 25 1 1 2 -12 2 -28z m-245 -1 c-11 -5 -27 -9 -35 -9
-13 -1 -13 0 0 9 8 5 24 9 35 9 l20 0 -20 -9z m-2512 -367 c-7 -2 -21 -2 -30
0 -10 3 -4 5 12 5 17 0 24 -2 18 -5z m270 -90 c-7 -2 -19 -2 -25 0 -7 3 -2 5
12 5 14 0 19 -2 13 -5z"/>
<path d="M4441 3726 c-8 -10 -34 -31 -58 -47 l-43 -30 0 -98 c0 -85 -2 -100
-17 -106 -17 -6 -17 -8 2 -21 17 -13 18 -16 5 -24 -32 -20 -294 -34 -339 -18
-36 13 -14 28 55 39 33 6 73 12 91 16 34 5 58 26 49 41 -3 5 -108 8 -238 7
-247 -3 -277 -8 -296 -50 -7 -14 -24 -26 -48 -32 -54 -12 -56 -33 -2 -34 24
-1 54 -4 68 -8 23 -7 21 -8 -15 -14 -22 -4 -54 -7 -72 -7 -47 0 -86 -20 -72
-37 6 -7 21 -13 33 -13 12 0 31 -7 42 -15 10 -8 40 -15 67 -15 26 0 47 -4 47
-10 0 -10 -5 -12 -55 -15 -16 -1 -57 -9 -90 -18 -32 -10 -74 -17 -92 -17 -19
0 -50 -7 -70 -15 -19 -8 -51 -15 -69 -15 -36 0 -45 -13 -16 -25 37 -15 317
-26 507 -20 271 9 381 20 422 45 19 11 50 20 69 20 l34 0 0 -100 0 -100 -1865
0 -1865 0 0 149 0 149 68 17 c37 9 124 19 194 22 70 3 125 9 123 14 -3 4 -36
10 -73 14 -108 10 -323 62 -415 100 -16 7 -17 -8 -17 -229 l0 -236 -150 0
c-82 0 -150 -3 -149 -7 0 -5 13 -46 28 -92 l28 -83 -18 -67 c-38 -140 -52
-167 -136 -265 -46 -53 -83 -98 -83 -101 0 -3 108 -5 240 -5 l240 0 2 -666 3
-665 80 -40 c44 -22 94 -47 110 -56 82 -43 510 -271 655 -348 91 -48 188 -98
216 -111 28 -12 95 -47 150 -77 54 -30 162 -87 239 -127 77 -40 185 -98 240
-128 55 -30 144 -76 198 -103 l98 -49 107 58 c59 33 184 99 277 147 94 49 181
96 195 105 14 10 140 76 280 147 140 72 363 188 495 259 132 70 326 171 430
224 l190 96 3 667 2 667 115 0 c63 0 115 2 115 5 0 3 -20 45 -44 93 l-43 87
27 83 c15 45 30 85 33 89 4 3 32 7 62 8 31 2 58 5 59 7 2 1 22 32 46 68 24 36
46 67 49 70 15 12 61 87 61 98 0 9 -60 12 -240 12 l-240 0 -2 377 c-3 329 -5
374 -17 359z m-101 -395 c0 -27 -3 -29 -32 -26 -49 5 -88 16 -88 26 0 15 35
28 78 29 40 0 42 -2 42 -29z m-580 -436 c11 -10 20 -27 20 -38 0 -28 -98 -327
-116 -355 -33 -51 -69 -62 -203 -62 -187 0 -192 9 -110 256 53 162 75 196 137
210 15 3 32 8 37 10 6 2 56 2 112 0 82 -2 107 -6 123 -21z m-3064 -9 c19 -27
18 -52 -7 -132 -20 -64 -62 -124 -97 -135 -9 -3 -6 -22 13 -78 35 -105 36
-102 -41 -99 l-66 3 -30 83 c-27 75 -32 82 -57 82 -25 0 -29 -6 -55 -85 l-27
-85 -81 0 c-89 0 -86 -6 -31 63 12 15 42 90 67 166 l45 138 -20 52 -19 52 196
-3 c180 -3 197 -5 210 -22z m215 -208 l-78 -233 -56 -3 c-40 -2 -57 1 -57 9 0
11 116 371 139 432 10 25 14 27 70 27 l59 0 -77 -232z m271 62 l-3 -165 32 50
c18 28 65 103 106 168 l74 117 61 0 c33 0 58 -3 56 -8 -1 -4 -68 -110 -147
-235 l-145 -227 -78 0 -78 0 0 68 c0 38 3 144 7 236 l6 167 56 -3 56 -3 -3
-165z m734 145 c-20 -78 -15 -75 -131 -75 -104 0 -106 0 -115 -26 -6 -14 -10
-30 -10 -35 0 -5 37 -9 83 -9 46 0 86 -3 89 -6 3 -3 -1 -27 -10 -55 l-16 -49
-91 0 -92 0 -11 -37 c-6 -20 -9 -40 -6 -45 3 -4 48 -8 101 -8 l95 0 -6 -25
c-3 -13 -11 -36 -16 -50 l-10 -25 -160 0 c-109 0 -160 3 -160 11 0 14 130 419
142 442 8 15 26 17 169 17 l161 0 -6 -25z m429 3 c23 -18 26 -27 22 -57 -12
-88 -61 -177 -112 -207 -19 -11 -19 -13 8 -90 15 -43 27 -83 27 -87 0 -4 -30
-7 -67 -5 l-68 3 -26 80 c-25 75 -28 80 -54 80 -26 0 -30 -5 -55 -80 l-27 -80
-56 -3 c-38 -2 -57 1 -57 9 0 14 129 417 142 442 8 15 26 17 152 17 132 0 146
-2 171 -22z m511 10 c-2 -7 -10 -30 -17 -50 l-12 -38 -108 0 -107 0 -11 -31
c-20 -58 -19 -59 78 -59 l89 0 -16 -50 -16 -50 -91 0 -91 0 -29 -90 -29 -90
-58 0 c-32 0 -58 3 -58 7 0 8 112 352 136 421 l16 42 165 0 c128 0 164 -3 159
-12z m404 -1 c34 -17 37 -56 8 -141 -22 -67 -53 -111 -92 -133 -19 -10 -19
-13 7 -84 15 -41 27 -80 27 -87 0 -10 -17 -12 -66 -10 l-67 3 -26 80 c-24 75
-28 80 -54 80 -26 0 -30 -5 -55 -80 l-27 -80 -57 -3 c-43 -2 -58 0 -58 10 0
10 120 380 145 446 6 17 280 17 315 -1z m800 -114 c19 -68 37 -123 41 -123 3
0 16 33 28 73 13 39 32 96 43 125 l19 52 60 0 c32 0 59 -1 59 -2 -1 -2 -36
-106 -78 -233 l-77 -230 -59 0 -59 0 -12 45 c-6 25 -20 79 -30 120 -9 41 -21
81 -24 88 -4 7 -26 -47 -50 -123 l-42 -135 -60 0 c-32 0 -59 3 -59 7 0 5 34
111 76 236 l76 228 56 -3 57 -3 35 -122z m740 123 c0 -3 -14 -25 -31 -50 l-30
-46 -68 0 -67 0 -43 -133 -44 -133 27 -47 c14 -26 26 -50 26 -52 0 -3 -45 -5
-100 -5 -55 0 -100 1 -100 3 0 1 25 77 55 167 30 90 55 172 55 182 0 15 -9 18
-60 18 -33 0 -60 4 -60 10 0 5 7 28 16 50 l16 40 204 0 c112 0 204 -2 204 -4z
m-3856 -553 c3 -10 8 -38 11 -63 l6 -45 -100 -120 c-56 -66 -101 -123 -101
-127 0 -5 731 -8 1625 -8 l1625 0 0 43 c0 24 -5 69 -10 100 -13 67 -10 74 70
170 l55 66 108 0 107 1 -2 -292 c-2 -211 -6 -292 -15 -295 -7 -3 -16 17 -23
51 -13 66 -40 106 -56 85 -14 -18 -54 -132 -54 -153 0 -11 9 -16 26 -16 35 0
29 -28 -11 -51 -16 -10 -33 -18 -36 -18 -4 -1 -19 28 -34 64 -36 85 -48 94
-72 58 -18 -26 -43 -97 -43 -122 0 -6 14 -11 30 -11 50 0 37 -27 -22 -45 -59
-17 -98 -19 -98 -5 0 6 10 10 21 10 21 0 21 3 15 73 -6 63 -13 97 -32 156 -9
28 -23 -5 -43 -106 -25 -122 -25 -125 -4 -121 10 2 19 -4 21 -13 2 -13 -8 -17
-50 -21 -29 -3 -59 -7 -67 -9 -9 -3 -17 8 -23 29 -5 17 -12 32 -17 32 -13 0
-32 -73 -21 -84 9 -9 -33 -48 -95 -86 -18 -11 -87 -37 -154 -59 l-121 -39 0
54 0 54 59 0 59 0 11 44 c15 61 14 66 -10 66 -16 0 -19 4 -14 20 8 25 24 113
32 173 l6 47 -152 0 -151 0 0 -27 c0 -31 25 -168 35 -195 6 -14 2 -18 -15 -18
-20 0 -22 -3 -16 -37 13 -74 12 -73 77 -73 l59 0 0 -59 0 -58 -47 -12 c-52
-13 -208 -63 -234 -75 -14 -6 -18 2 -24 52 -8 69 -45 141 -62 120 -17 -21 -63
-150 -57 -159 3 -5 16 -9 30 -9 17 0 24 -6 24 -19 0 -23 -16 -30 -92 -38 -55
-6 -58 -5 -58 17 0 19 4 21 24 16 14 -3 27 -2 30 3 7 10 -51 138 -66 147 -15
9 -46 -34 -54 -74 -7 -36 -24 -53 -24 -25 -1 10 -9 33 -19 51 -20 39 -28 33
-55 -45 -18 -54 -16 -76 9 -66 8 3 15 0 15 -6 0 -15 -4 -14 -95 9 -43 11 -79
20 -81 20 -1 0 -1 -21 -1 -47 2 -34 -7 -67 -27 -112 -16 -36 -31 -83 -34 -106
-7 -63 38 -114 163 -184 191 -107 316 -264 319 -398 l1 -56 -175 -94 c-96 -51
-198 -105 -226 -119 l-50 -26 -176 93 c-248 133 -232 116 -160 167 93 65 168
138 191 185 31 64 27 111 -18 202 -63 132 -74 168 -69 235 5 68 33 111 109
168 68 50 99 79 99 91 0 19 -51 33 -149 40 l-94 6 -11 38 c-6 21 -15 39 -19
40 -5 1 -15 -16 -22 -38 -11 -30 -11 -41 -2 -47 7 -5 1 -8 -16 -8 -16 0 -26 4
-22 9 5 10 -31 119 -45 135 -17 18 -61 -100 -52 -136 1 -5 -14 -8 -33 -8 l-35
0 0 78 0 79 -142 43 c-79 24 -151 47 -160 52 -16 8 -18 25 -18 148 0 130 -1
140 -19 140 -17 0 -19 -11 -23 -125 -3 -69 -8 -128 -11 -131 -3 -3 -19 -3 -35
1 l-29 6 -8 160 c-6 141 -9 160 -23 157 -15 -3 -17 -23 -20 -146 l-3 -142 -24
0 c-22 0 -270 -52 -317 -66 -10 -3 -18 -12 -18 -20 0 -17 -7 -17 -49 -3 -23 8
-31 17 -31 35 0 17 6 24 20 24 24 0 25 14 5 95 -8 33 -14 72 -15 86 0 14 -6
34 -14 44 -12 17 -15 14 -29 -36 -9 -30 -19 -87 -23 -128 -7 -72 -6 -73 15
-66 17 5 21 2 21 -15 0 -25 -15 -24 -83 5 -43 18 -50 45 -12 45 14 0 25 4 25
9 0 14 -50 120 -60 126 -12 8 -39 -33 -51 -78 -10 -38 -11 -38 -30 -21 -13 12
-16 20 -8 25 14 8 -1 81 -18 86 -6 2 -14 -10 -18 -26 -8 -37 -13 -38 -59 -8
-42 26 -48 50 -11 41 29 -7 30 -2 14 61 -14 55 -42 83 -64 65 -13 -11 -15 14
-15 224 l0 236 164 0 c148 0 165 -2 170 -17z m1480 -95 c18 -52 -35 -118 -96
-118 -88 0 -92 118 -4 155 40 17 87 0 100 -37z m-1143 32 c14 -8 19 -21 19
-48 0 -42 -25 -77 -67 -93 -29 -11 -93 -12 -93 -1 0 4 10 40 21 80 l22 72 39
0 c22 0 48 -5 59 -10z m159 3 c0 -30 -45 -153 -56 -153 -19 0 -17 26 7 98 12
37 27 62 35 62 8 0 14 -3 14 -7z m195 -2 c8 -14 -16 -26 -47 -22 -37 3 -36
-15 2 -34 58 -30 26 -95 -46 -95 -31 0 -60 21 -47 34 4 3 21 4 38 0 22 -4 35
-1 44 10 11 13 10 17 -5 22 -53 16 -68 48 -39 78 18 17 90 22 100 7z m210 -11
c0 -11 -9 -14 -33 -12 -40 4 -72 -20 -72 -53 0 -30 23 -47 53 -40 31 8 44 -10
18 -24 -84 -45 -149 52 -81 120 25 26 36 30 72 27 30 -2 43 -7 43 -18z m320 0
c0 -11 -9 -14 -31 -12 -39 4 -64 -19 -64 -58 0 -36 34 -51 59 -26 13 14 14 18
2 25 -19 12 -4 31 25 31 27 0 28 -5 14 -47 -18 -51 -84 -69 -120 -33 -30 30
-26 76 10 111 24 25 37 30 67 27 26 -2 38 -8 38 -18z m405 16 c0 -2 -7 -23
-15 -46 -24 -68 -21 -80 21 -80 24 0 34 -4 32 -12 -5 -14 -118 -24 -118 -11 0
4 10 41 21 81 17 56 26 72 40 72 11 0 19 -2 19 -4z m280 -11 c0 -11 -12 -15
-45 -15 -33 0 -45 -4 -45 -15 0 -10 10 -15 30 -15 20 0 30 -5 30 -15 0 -11
-11 -15 -39 -15 -36 0 -40 -3 -46 -31 -6 -28 -29 -48 -41 -36 -3 2 5 39 17 81
l22 76 59 0 c45 0 58 -3 58 -15z m300 5 c22 -14 4 -24 -43 -25 -36 0 -43 -3
-51 -28 -14 -39 3 -63 43 -59 36 2 44 -23 10 -33 -52 -17 -107 30 -95 81 15
59 89 94 136 64z m119 -52 c-10 -35 -19 -64 -19 -65 0 -2 20 -3 45 -3 35 0 43
-3 39 -15 -8 -19 -124 -22 -124 -4 0 7 9 43 20 80 16 53 25 69 40 69 18 0 18
-2 -1 -62z m204 13 c-15 -46 -13 -81 5 -81 22 0 44 30 56 75 8 32 18 51 29 53
22 4 21 -10 -6 -83 -24 -65 -51 -84 -101 -71 -37 9 -41 28 -21 97 13 43 23 59
36 59 16 0 16 -3 2 -49z m305 37 c5 -7 6 -22 2 -33 -4 -11 -6 -32 -3 -46 7
-39 -36 -69 -98 -69 -30 0 -49 4 -49 11 0 7 9 43 20 80 l21 69 48 0 c27 0 53
-6 59 -12z m-3148 -508 c0 -5 -5 -10 -11 -10 -5 0 -7 5 -4 10 3 6 8 10 11 10
2 0 4 -4 4 -10z m2645 -82 c3 -35 9 -71 12 -81 4 -14 0 -18 -13 -15 -21 4 -42
63 -43 121 -1 30 3 37 18 37 16 0 20 -10 26 -62z m65 -18 c0 -71 -2 -80 -19
-80 -20 0 -31 40 -31 118 0 38 2 42 25 42 25 0 25 -1 25 -80z m70 46 c0 -18
-3 -54 -6 -80 -5 -36 -11 -46 -25 -46 -17 0 -19 9 -19 80 0 79 0 80 25 80 22
0 25 -4 25 -34z m56 -20 c-8 -70 -22 -106 -40 -106 -11 0 -14 9 -11 33 3 17 7
53 10 80 5 39 10 47 27 47 19 0 20 -4 14 -54z m664 -40 c0 -2 -7 -6 -15 -10
-8 -3 -15 -1 -15 4 0 6 7 10 15 10 8 0 15 -2 15 -4z m-3270 -46 c0 -5 -2 -10
-4 -10 -3 0 -8 5 -11 10 -3 6 -1 10 4 10 6 0 11 -4 11 -10z m2398 -57 c2 -8
-5 -13 -17 -13 -12 0 -21 6 -21 16 0 18 31 15 38 -3z m40 -1 c6 -18 -15 -14
-22 4 -4 10 -1 14 6 12 6 -2 14 -10 16 -16z m42 2 c0 -17 -22 -14 -28 4 -2 7
3 12 12 12 9 0 16 -7 16 -16z m48 4 c-6 -18 -28 -21 -28 -4 0 9 7 16 16 16 9
0 14 -5 12 -12z m36 -3 c-4 -8 -10 -15 -15 -15 -5 0 -9 7 -9 15 0 8 7 15 15
15 9 0 12 -6 9 -15z m56 0 c0 -8 -9 -15 -20 -15 -20 0 -26 11 -13 23 12 13 33
7 33 -8z m-179 -51 c11 -14 8 -15 -26 -12 -21 2 -40 9 -43 16 -6 18 53 15 69
-4z m167 4 c-3 -7 -22 -14 -43 -16 -34 -3 -37 -2 -26 12 16 19 75 22 69 4z
m-1368 -208 c0 -5 -4 -10 -10 -10 -5 0 -10 5 -10 10 0 6 5 10 10 10 6 0 10 -4
10 -10z m924 -29 c3 -5 -1 -12 -10 -15 -22 -9 -24 -8 -24 9 0 16 25 21 34 6z
m-226 -34 c3 -14 -5 -17 -47 -17 -38 0 -51 4 -51 15 0 8 6 12 13 9 7 -2 24 0
38 5 30 12 43 9 47 -12z"/>
<path d="M3512 2808 c-10 -13 -82 -237 -82 -257 0 -17 115 -14 129 3 17 20 92
247 85 257 -8 14 -120 11 -132 -3z"/>
<path d="M436 2763 c-9 -26 -16 -48 -16 -50 0 -2 26 -3 58 -3 66 0 87 15 98
68 l7 32 -66 0 -65 0 -16 -47z"/>
<path d="M2102 2772 c-18 -60 -17 -62 43 -62 59 0 80 17 87 70 3 24 1 25 -58
28 l-61 3 -11 -39z"/>
<path d="M3022 2771 c-18 -59 -17 -61 43 -61 59 0 76 14 90 73 l7 27 -64 0
-65 0 -11 -39z"/>
<path d="M2305 1890 c-13 -25 -14 -41 -6 -87 12 -64 9 -73 -25 -73 -13 0 -24
-3 -24 -7 0 -23 26 -71 47 -87 25 -19 26 -19 43 4 l17 23 48 -37 c47 -36 75
-45 75 -26 0 6 7 10 16 10 16 0 44 23 44 37 0 4 -20 19 -44 32 -25 13 -52 31
-61 41 -15 17 -15 19 5 38 19 17 19 20 5 26 -9 3 -27 3 -40 0 -18 -4 -27 1
-44 29 -11 19 -21 51 -21 71 0 44 -14 46 -35 6z"/>
<path d="M2318 2258 c-25 -20 -31 -54 -13 -72 22 -21 41 -20 65 4 46 46 -2
107 -52 68z"/>
<path d="M1190 2225 c-7 -25 -10 -48 -7 -51 12 -13 63 14 75 40 16 33 2 56
-33 56 -18 0 -25 -9 -35 -45z"/>
<path d="M3697 2263 c-15 -14 -6 -24 20 -21 34 4 43 28 11 28 -14 0 -28 -3
-31 -7z"/>
<path d="M3673 2195 c-3 -9 -3 -18 0 -21 11 -11 67 8 67 22 0 20 -59 19 -67
-1z"/>
<path d="M2440 3359 c-80 -4 -217 -14 -305 -23 -88 -9 -266 -19 -395 -23
l-235 -6 45 -19 c31 -14 59 -18 90 -15 25 3 66 1 92 -5 36 -7 61 -6 108 6 69
18 137 20 160 6 25 -16 1 -28 -99 -49 -94 -21 -159 -49 -153 -67 3 -9 10 -9
100 2 42 5 67 2 122 -17 69 -23 70 -23 137 -6 63 16 74 16 142 2 77 -16 120
-13 159 11 28 18 20 34 -16 34 -15 0 -62 8 -105 17 -58 14 -77 22 -75 33 3 11
19 15 68 16 52 2 80 9 140 38 60 29 86 36 135 36 33 0 66 4 74 9 19 12 4 31
-22 29 -12 -1 -87 -5 -167 -9z"/>
</g>
</svg>
